<?xml version="1.0" encoding="UTF-8"?>
<svg id="_Слой_2" data-name="Слой 2" xmlns="http://www.w3.org/2000/svg" viewBox="0 0 144.22 178.86">
  <defs>
    <style>
      .cls-1 {
        fill: #ee7d54;
      }

      .cls-2 {
        fill: #152c46;
      }
    </style>
  </defs>
  <g id="a594625d-0d18-4342-b87b-3dd331dc7d69">
    <g id="b24067a1-71bf-4633-a131-31ea56632ca8">
      <g id="e261bdc8-3d92-412c-aea5-eaa8e8078db5">
        <g id="ba60de1c-db1d-4caa-b111-c1752990e85a">
          <path class="cls-2" d="m31.54,164.23c0,8.13-6.05,13.75-14.63,13.75H0v-44.16h27.76v8.33H8.71v8.39h8.2c8.58,0,14.63,5.61,14.63,13.69Zm-8.64,0c0-3.66-2.71-5.55-6-5.55h-8.2v11.16h8.2c3.29,0,6-1.89,6-5.61Z"/>
          <path class="cls-2" d="m68.28,148.43c-.02,8.14-6.63,14.71-14.77,14.69-.08,0-.15,0-.23,0h-7.76v14.83h-8.71v-44.13h16.47c8.13-.15,14.84,6.31,15,14.44,0,.06,0,.12,0,.17Zm-8.71,0c.12-3.47-2.59-6.37-6.06-6.5-.06,0-.12,0-.18,0h-7.76v13.06h7.76c3.5-.03,6.31-2.88,6.28-6.38,0-.06,0-.12,0-.18h-.04Z"/>
          <path class="cls-2" d="m97.84,150.66l-17.22,27.32h-6.62v-44.16h8.7v27.25l17.16-27.25h6.62v44.16h-8.64v-27.32Z"/>
          <path class="cls-2" d="m144.21,164.04c0,8.64-6.37,14.82-16.4,14.82s-16.41-6.62-16.41-15.33h8.65c0,3.79,2.52,7.13,7.76,7.13s7.69-2.84,7.69-6.62-2.52-6.69-7.5-6.69h-3.35v-8.07h3.35c.69,0,1.32.06,1.95.12,1.37-.88,2.22-2.37,2.27-4,0-2.47-1.7-4.29-5-4.29s-5,1.82-5,4.29h-8.7c0-7.32,5.49-12.43,13.69-12.43s13.62,5.11,13.62,11.92c-.04,2.66-1.05,5.21-2.83,7.19,4,2.65,6.35,7.17,6.21,11.96Z"/>
        </g>
        <g id="acda6428-2880-4e03-931c-88d744c4fd1d">
          <path class="cls-2" d="m5.28,113.6v12.3h-1.3v-12.3H.1v-1.17h9v1.15l-3.82.02Z"/>
          <path class="cls-2" d="m15.92,126.14c-.9.01-1.79-.17-2.62-.53-.76-.33-1.44-.83-2-1.45-.55-.63-.98-1.37-1.25-2.16-.3-.86-.45-1.76-.44-2.67,0-.98.14-1.96.44-2.89.26-.83.7-1.59,1.27-2.24.57-.63,1.27-1.12,2.05-1.45.87-.36,1.81-.54,2.75-.52.88-.01,1.76.16,2.57.51.74.33,1.4.81,1.93,1.42.55.62.96,1.35,1.22,2.14.3.87.44,1.78.43,2.69,0,.96-.13,1.92-.42,2.84-.26.83-.67,1.6-1.23,2.26-.55.65-1.23,1.16-2,1.51-.85.37-1.77.55-2.7.54Zm.1-12.78c-.75-.01-1.49.15-2.16.47-.61.3-1.16.72-1.59,1.25-.45.55-.79,1.18-1,1.86-.23.74-.34,1.5-.34,2.27,0,.75.12,1.5.35,2.22.19.67.51,1.29.92,1.85.42.54.95.98,1.56,1.28.68.33,1.43.49,2.19.47.76.02,1.51-.13,2.21-.43.61-.28,1.16-.69,1.59-1.21.45-.54.79-1.17,1-1.85.23-.76.34-1.54.33-2.33,0-.76-.09-1.51-.29-2.24-.17-.67-.48-1.3-.89-1.86-.43-.55-.99-.99-1.62-1.28-.71-.33-1.48-.49-2.26-.47h0Z"/>
          <path class="cls-2" d="m26.28,120.67v5.23h-1.25v-13.47h3.47c.64-.01,1.27.08,1.88.27.51.15.98.41,1.38.76.38.33.67.75.85,1.21.2.53.3,1.09.29,1.66,0,.59-.11,1.18-.33,1.73-.21.52-.53.98-.94,1.37-.44.4-.95.7-1.5.9-.64.22-1.32.33-2,.32l-1.85.02Zm0-7.07v5.93h1.78c.95.07,1.89-.22,2.64-.81.62-.59.95-1.42.9-2.28,0-1.9-1.11-2.84-3.32-2.84h-2Z"/>
          <path class="cls-2" d="m36.85,113.62v12.28h-1.26v-13.47h6.69v1.17l-5.43.02Z"/>
          <path class="cls-2" d="m49.53,126.14c-.9.01-1.79-.17-2.62-.53-.76-.33-1.44-.83-2-1.45-.55-.63-.98-1.37-1.25-2.16-.29-.86-.44-1.76-.43-2.67-.01-.98.13-1.96.43-2.89.27-.83.7-1.59,1.27-2.24.57-.63,1.27-1.12,2.05-1.45.87-.36,1.81-.54,2.76-.52.88-.01,1.75.16,2.56.51.74.33,1.4.81,1.93,1.42.55.62.96,1.35,1.22,2.14.3.87.44,1.78.43,2.69,0,.96-.13,1.92-.42,2.84-.25.83-.67,1.6-1.23,2.26-.55.64-1.23,1.16-2,1.51-.85.37-1.77.55-2.7.54Zm.11-12.78c-.75-.01-1.49.15-2.17.47-.61.3-1.16.72-1.59,1.25-.45.55-.79,1.18-1,1.86-.22.74-.34,1.5-.34,2.27-.01.74.09,1.48.3,2.19.19.67.5,1.29.91,1.85.42.54.95.98,1.56,1.28.68.33,1.43.49,2.19.47.76.02,1.51-.13,2.21-.43.62-.28,1.16-.69,1.59-1.21.46-.54.8-1.17,1-1.85.23-.76.34-1.54.33-2.33,0-.76-.09-1.51-.29-2.24-.17-.67-.48-1.3-.89-1.86-.41-.53-.94-.96-1.54-1.25-.71-.33-1.49-.49-2.27-.47Z"/>
          <path class="cls-2" d="m58.6,125.9v-13.47h3.68c.51,0,1.02.07,1.51.23.42.14.8.35,1.14.63.32.27.57.61.73,1,.17.4.26.83.25,1.26,0,.37-.05.74-.16,1.09-.11.33-.26.64-.46.92-.2.28-.45.52-.73.72-.31.21-.64.38-1,.49h0c.42.04.83.15,1.22.33.36.17.68.4.95.69.27.29.48.63.61,1,.15.4.23.82.22,1.24,0,.54-.1,1.07-.31,1.56-.2.46-.5.88-.87,1.22-.38.35-.84.62-1.33.79-.55.19-1.12.29-1.7.28l-3.75.02Zm1.25-12.3v4.77h1.75c.42,0,.83-.06,1.23-.18.35-.1.67-.28.95-.51.26-.23.47-.51.61-.82.14-.34.22-.71.21-1.08,0-1.45-.91-2.18-2.72-2.18h-2.03Zm0,5.9v5.27h2.32c.82.06,1.64-.19,2.29-.7.56-.51.85-1.25.8-2,0-1.73-1.17-2.6-3.51-2.59l-1.9.02Z"/>
          <path class="cls-2" d="m77.39,121.96c0,.54-.09,1.08-.28,1.59-.18.47-.47.9-.83,1.25-.38.36-.83.64-1.32.81-.57.2-1.17.3-1.77.29h-3.86v-13.47h1.25v5.85h2.81c.55,0,1.11.07,1.64.22.47.14.9.37,1.27.69.36.31.63.7.81,1.14.2.52.3,1.07.28,1.63Zm-1.31.08c.08-.76-.22-1.5-.79-2-.68-.46-1.5-.69-2.33-.63h-2.38v5.34h2.4c.46,0,.93-.06,1.37-.2.37-.11.71-.3,1-.55.26-.23.45-.53.57-.86.12-.35.17-.73.16-1.1h0Zm3.27,3.86v-13.47h1.25v13.45l-1.25.02Z"/>
          <path class="cls-2" d="m93.34,125.9v-10.98c0-.27,0-.48.05-.66h-.05c-.07.15-.14.3-.23.44l-.26.41-7.47,10.79h-1.3v-13.47h1.25v10.9c.01.22.01.43,0,.65h0c.07-.12.15-.27.25-.43l.3-.45,7.4-10.67h1.37v13.45l-1.31.02Zm-4-15.32c.28,0,.55-.05.81-.14.24-.09.47-.23.66-.4.19-.17.35-.38.47-.61.12-.23.2-.47.22-.73h1.22c-.05.38-.17.75-.35,1.09-.18.33-.41.63-.7.87-.29.26-.63.46-1,.59-.42.15-.87.22-1.32.21-.44,0-.88-.06-1.3-.21-.37-.13-.71-.33-1-.59-.27-.24-.49-.54-.65-.87-.16-.34-.26-.71-.3-1.09h1.22c.02.26.08.51.18.75.09.22.23.42.4.59.18.17.38.3.61.38.27.1.56.16.85.16h-.02Z"/>
          <path class="cls-2" d="m113.02,129.51v-3.61h-10.05v3.61h-1.2v-4.74h1.07c.3-.56.59-1.17.87-1.82s.54-1.31.79-2,.48-1.4.69-2.13.39-1.45.55-2.17.28-1.45.37-2.15c.1-.66.16-1.33.18-2h6.06v12.32h1.84v4.74l-1.17-.05Zm-1.92-15.91h-3.72c-.03.55-.08,1.1-.17,1.65-.1.61-.22,1.24-.37,1.9s-.32,1.33-.52,2-.4,1.36-.63,2-.47,1.3-.72,1.91-.5,1.17-.77,1.68h6.9v-11.14Z"/>
          <path class="cls-2" d="m121.83,126.14c-.9.01-1.79-.17-2.62-.53-.76-.33-1.44-.83-2-1.45-.55-.63-.98-1.37-1.25-2.16-.3-.86-.45-1.76-.44-2.67,0-.98.14-1.96.44-2.89.27-.83.7-1.59,1.27-2.24.56-.62,1.24-1.12,2-1.45.87-.36,1.81-.54,2.76-.52.88-.01,1.75.16,2.56.51.74.33,1.4.81,1.93,1.42.55.62.96,1.35,1.22,2.14.3.87.44,1.78.43,2.69,0,.96-.13,1.92-.42,2.84-.26.83-.67,1.6-1.23,2.26-.55.64-1.23,1.16-2,1.51-.84.36-1.74.54-2.65.54Zm.1-12.78c-.75-.01-1.49.15-2.16.47-.61.3-1.16.72-1.59,1.25-.45.55-.79,1.18-1,1.86-.23.74-.34,1.5-.34,2.27-.01.74.09,1.48.29,2.19.19.67.51,1.29.92,1.85.42.54.95.98,1.56,1.28.68.33,1.43.49,2.19.47.76.02,1.51-.13,2.21-.43.62-.28,1.16-.69,1.59-1.21.46-.54.8-1.17,1-1.85.23-.76.34-1.54.33-2.33,0-.76-.09-1.51-.29-2.24-.17-.67-.48-1.3-.89-1.86-.41-.53-.94-.96-1.54-1.25-.71-.33-1.49-.49-2.28-.47Z"/>
          <path class="cls-2" d="m142.81,125.9v-9.28c0-.48,0-1.24.11-2.3h0l-.24.73c-.06.17-.12.34-.2.51l-4.69,10.34h-.53l-4.7-10.28c-.18-.43-.32-.87-.43-1.32h0c0,.29,0,.62.05,1s0,.77,0,1.22v9.39h-1.22v-13.48h1.47l4.57,10.12c.1.21.19.43.28.65s.17.46.25.71h.06l.23-.69c.08-.21.17-.43.27-.67l4.55-10.12h1.4v13.45l-1.23.02Z"/>
        </g>
      </g>
      <g id="b325fd83-887e-4891-a22d-864b2ec80b31">
        <path class="cls-1" d="m12.89,93.26C66.58,27.37,37.14,15.93,38.06,16.03c55.81,30.13-6,67-6,67-3.37,1.93-3,4.8,1.69,4.81,37.9-.19,58-4.49,62-12.66,1.9-3.6.81-6.45-1.92-7.81-5.9-2.8-17-2.37-35.45.8-3.57.52-3.19-.91-1.17-2.31l31.41-21.75c52.61-10,70.68,46,0,48.73l-75.73.42Z"/>
        <path class="cls-1" d="m41.5,6.59c-5.3,3.39-5.15,7.86.29,9.57,9.92,3.36,48.11-6.63,78.46-9.36l-.27,3c2.34,1.55,6.94-.52,14.07-6.68C91.28-1.48,56.81-1.51,41.5,6.59Z"/>
      </g>
    </g>
  </g>
</svg>