<?xml version="1.0" encoding="UTF-8"?>
<svg id="_Слой_2" data-name="Слой 2" xmlns="http://www.w3.org/2000/svg" viewBox="0 0 218.08 80.65">
  <defs>
    <style>
      .cls-1 {
        fill: #b00d08;
      }

      .cls-2 {
        fill: #61696d;
      }
    </style>
  </defs>
  <g id="_Слой_1-2" data-name="Слой 1">
    <g>
      <path class="cls-1" d="m183.77,41.84l1.33-6.62h-12.44l.67-3.31h13.27l1.33-6.62h-16.34c-4.54-.13-7.18,1.87-8.1,5.86l-2.93,14.65c-.64,4.08,1.28,6.04,5.85,5.98h16.24l1.33-6.62h-13.32l.66-3.31h12.45Zm-21.64-16.56h-11.6l-8.54,9.94,2-9.94h-9.98l-5.32,26.49h9.98l2.16-10.76,4.57,10.77h12.17l-6.92-14.09,11.49-12.42Zm-51.59,14.91h0l4.57-8.28.4,8.28h-4.97Zm12.41-11.38c-.44-2.22-1.78-3.38-4.32-3.52h-5c-2.94,0-4.7.21-7.12,4.1l-12.36,22.39h9.98l2.74-4.97h8.87l.15,4.97h10.52l-3.47-22.98Zm-39.36,16.35h-2.49l2.66-13.25h2.49c-2.46,12.15-1.41,7.27-2.66,13.25Zm-12.49,0h-2.5c2.46-12.15,1.48-7.26,2.73-13.25h2.42l-2.65,13.25Zm19.34-19.87h-5.41l.67-3.31h-9.96l-.66,3.31h-5.43c-4.54-.13-7.28,1.81-8.21,5.79l-2.92,14.65c-.63,4.08,1.38,6.12,5.95,6.05h5.28l-.64,3.31h9.96l.66-3.31h5.57c4.55.13,7.18-1.79,8.11-5.78l2.94-14.65c.63-4.08-1.33-6.13-5.9-6.07Zm124.12,3.51c-.44-2.22-1.93-3.38-4.46-3.52h-5c-2.94,0-4.85.12-7.27,4.02l-12.41,22.48h9.98l11.09-19.87.83,19.87h10.77s-3.53-22.98-3.53-22.98Z"/>
      <path class="cls-2" d="m99.69,59.82v12.44h-2.75v-10.13h-4.35v10.13h-2.75v-12.44h9.85Zm9.66,7.18h-4.49v2.95h5.02v2.31h-7.77v-12.44h7.52v2.31h-4.76v2.58h4.49v2.29Zm5.18-7.18v10.13h4.27v-10.13h2.75v10.22l1.23.07-.13,5.28h-2.1l-.14-3.14h-8.64v-12.44h2.75Zm12.03,6.24h0c0,2.45,1.12,4.17,2.97,4.17s2.93-1.81,2.93-4.23c0-2.25-1.03-4.17-2.93-4.17s-2.97,1.81-2.97,4.23Zm8.82-.15c0,4.1-2.41,6.55-6,6.55s-5.74-2.79-5.74-6.35,2.36-6.52,5.94-6.52,5.8,2.86,5.8,6.31Zm5.62-2.14h0c0,1.44-.18,2.84-.54,4.1-.22.76-.53,1.51-.83,2.1h4.06v-7.86h-2.68v1.66Zm5.43-3.95v10.22l1.21.07-.13,5.28h-2.08l-.14-3.14h-7.16l-.15,3.14h-2.1l-.11-5.28,1.03-.07c.49-.87.89-1.79,1.16-2.77.33-1.26.47-2.62.47-4.14v-3.32h7.99Zm10.04,7.18h-4.49v2.95h5.02v2.31h-7.77v-12.44h7.52v2.31h-4.76v2.58h4.49v2.29Zm4.53-7.18l3.04,5.17h.24v-5.17h2.66v5.17h.24l3.04-5.17h3.2l-4.16,5.56c1.67.18,2.46,1.42,2.97,3.03.43,1.29.72,2.64,1.27,3.86h-2.79c-.38-.83-.63-1.86-.89-2.75-.38-1.33-.96-2.45-2.46-2.45h-.42v5.2h-2.66v-5.2h-.43c-1.49,0-2.06,1.13-2.46,2.45-.25.89-.49,1.92-.87,2.75h-2.77c.53-1.22.87-2.57,1.27-3.78.53-1.61,1.3-2.79,2.93-3.1l-4.15-5.56h3.21Zm18.37,3.95h0c0,1.44-.18,2.84-.54,4.1-.22.76-.53,1.51-.83,2.1h4.06v-7.86h-2.68v1.66Zm5.43-3.95v10.22l1.21.07-.13,5.28h-2.08l-.14-3.14h-7.15l-.15,3.14h-2.1l-.11-5.28,1.03-.07c.49-.87.89-1.79,1.16-2.77.33-1.26.47-2.62.47-4.14v-3.32h7.99Zm8.86,7.14h0l-.76-2.64c-.22-.74-.43-1.66-.62-2.4h-.04c-.18.74-.36,1.68-.56,2.4l-.73,2.64h2.7Zm-3.1,2.1l-.87,3.19h-2.84l3.71-12.44h3.62l3.8,12.44h-2.99l-.94-3.19h-3.5Zm-102.6,2.86c-.49.24-1.65.54-3.12.54-4.22,0-6.39-2.69-6.39-6.24,0-4.25,2.97-6.59,6.67-6.59,1.43,0,2.52.28,3.01.55l-.58,2.21c-.54-.24-1.32-.46-2.32-.46-2.17,0-3.88,1.35-3.88,4.12,0,2.49,1.45,4.06,3.89,4.06.85,0,1.76-.17,2.32-.41l.4,2.22Z"/>
      <path class="cls-2" d="m43.44,20.16c29.41,30.94-13.57,36.69-9.94,50.94-1.75-1.8-3.05-3.48-3.97-5.06-4.52,4.73-7.79,9.16-6.44,14.62-27.13-28.2,18.42-36.02,20.36-60.49"/>
      <path class="cls-1" d="m10.35,60.49C-19.06,29.55,23.92,23.81,20.29,9.56c1.75,1.8,3.05,3.48,3.97,5.06,4.52-4.73,7.79-9.16,6.45-14.62C57.84,28.2,12.29,36.02,10.35,60.49"/>
    </g>
  </g>
</svg>